<svg id="Capa_2" data-name="Capa 2" xmlns="http://www.w3.org/2000/svg" viewBox="0 0 1414.58 439.1"><defs><style>.cls-1,.cls-2{fill:#fff;stroke:#fff;stroke-miterlimit:10;}.cls-2{stroke-width:2px;}</style></defs><title>proyectalogoweb</title><rect width="1414.58" height="352.42"/><path class="cls-1" d="M158.8,466.7q-23-21.42-59.36-21.43H20.59v17.65h.05v10.54H38.29V462.92h62.83q27.32,0,45.17,16.6t17.86,37.41q0,13-7.87,25.63t-25,21.33a79.76,79.76,0,0,1-36.67,8.72h-74V673.47h-.05v17.65H38.94V673.47h-.65v-83.2H93.55q18.09,0,30.27-4A113.07,113.07,0,0,0,156.39,569q10.5-7.77,18-21.44a62.81,62.81,0,0,0,7.46-30.67Q181.81,488.13,158.8,466.7Z" transform="translate(-3.49 -417.89)"/><path class="cls-2" d="M279.22,577.79a26.44,26.44,0,0,0-9.48-13.92c-.81-.62-1.65-1.19-2.49-1.71v129h13.18V611.67A39.92,39.92,0,0,1,320,571.74V558.43Q295.36,558.43,279.22,577.79Z" transform="translate(-3.49 -417.89)"/><path class="cls-2" d="M473.75,574a53.06,53.06,0,0,0-75,0q-15.54,15.52-15.53,37.71v26.22a53.43,53.43,0,0,0,38.09,51.23V675a40.15,40.15,0,0,1-23.57-27,41.72,41.72,0,0,1-1.21-10.08V611.67a41.66,41.66,0,0,1,1.21-10.08,39.76,39.76,0,0,1,77,0A41.17,41.17,0,0,1,476,611.67v26.22A41.23,41.23,0,0,1,474.76,648,40.14,40.14,0,0,1,450,675.47v14a53.31,53.31,0,0,0,39.28-51.54V611.67Q489.27,589.49,473.75,574Z" transform="translate(-3.49 -417.89)"/><path class="cls-2" d="M657.41,558,612.85,669.4,611.42,673l-4.72,12.53-2.14,5.58v0l-31.86,79.46h10.46a5.39,5.39,0,0,0,5-3.39L671.93,558Zm-92,0H551.33l38.42,96,6.9-18Z" transform="translate(-3.49 -417.89)"/><path class="cls-2" d="M828.53,574.77a55.87,55.87,0,0,0-95.39,39.32v21q0,23,16.34,39.53,15.46,15.64,36.87,16.48c.81,0,1.63,0,2.45,0A55.06,55.06,0,0,0,809,687.41V675.77h-9.51A44.36,44.36,0,0,1,788.8,677c-.82,0-1.64,0-2.45-.08a40,40,0,0,1-17.91-5.37,42.81,42.81,0,0,1-15.13-14.32,42.2,42.2,0,0,1-6-22.18v-21a42.22,42.22,0,0,1,6-22.18,42.9,42.9,0,0,1,15.13-14.32,41.61,41.61,0,0,1,41.14,0,43,43,0,0,1,15.12,14.32,42.31,42.31,0,0,1,6,22.18V621H809v14.11h35.9v-21A53.58,53.58,0,0,0,828.53,574.77Z" transform="translate(-3.49 -417.89)"/><path class="cls-2" d="M991.77,677v14.12H969.06a53.88,53.88,0,0,1-38.72-16.32Q914,658.46,914,635.06V614.49q0-23.38,16.34-39.72a53.89,53.89,0,0,1,38.18-16.33h22.71v14.13H969.18a41.76,41.76,0,0,0-19.89,5.23,40.09,40.09,0,0,0-15.12,14.53,42.28,42.28,0,0,0-6,22.17v20.57a42.29,42.29,0,0,0,6,22.18,40.07,40.07,0,0,0,15.12,14.52A41.64,41.64,0,0,0,969.06,677h22.71Z" transform="translate(-3.49 -417.89)"/><path class="cls-2" d="M1107.37,558.43v13.31h30.07V558.43Zm-63,0v13.31h30.07V558.43Zm68.3,110.91A38.38,38.38,0,0,1,1098.73,648a41.23,41.23,0,0,1-1.22-10.08V571.74h0V558.43h0V479H1084.2V637.89a51.32,51.32,0,0,0,15.53,37.71q15.51,15.54,37.71,15.52v-13.3A38.74,38.74,0,0,1,1112.64,669.34Z" transform="translate(-3.49 -417.89)"/><path class="cls-1" d="M1229.91,691.13h-20.47l98.74-246.47,99.35,246.47h-20.47L1308.18,496.2Z" transform="translate(-3.49 -417.89)"/><path class="cls-2" d="M970.07,558.43h0Z" transform="translate(-3.49 -417.89)"/><path class="cls-2" d="M970.56,572.56h0Z" transform="translate(-3.49 -417.89)"/><path class="cls-2" d="M969.06,691.11h0Z" transform="translate(-3.49 -417.89)"/><path class="cls-2" d="M969.87,677h0Z" transform="translate(-3.49 -417.89)"/><line class="cls-2" x1="603.2" y1="267.62" x2="601.07" y2="273.23"/><path class="cls-2" d="M625,747.47" transform="translate(-3.49 -417.89)"/><polygon class="cls-2" points="609.36 251.51 603.2 267.62 607.93 255.09 609.36 251.51"/><path d="M43.09,854H39.32l-5.26-13.81H12.91q-1.14,3.26-2.47,6.88L7.89,854H4.55q2.13-5.57,4.18-10.91t4.1-10.61q2-5.28,4.1-10.62T21.11,811h4.44Zm-9.93-16.29-10-23.89-9.45,23.89Z" transform="translate(-3.49 -417.89)"/><path d="M85.13,854H81.67L77.4,842.55a28.47,28.47,0,0,0-1.4-3.1,11.32,11.32,0,0,0-1.78-2.53,7.84,7.84,0,0,0-2.34-1.71,7,7,0,0,0-3.08-.63h-15V854H50.63V811H70a28.13,28.13,0,0,1,5.24.49,12.91,12.91,0,0,1,4.51,1.75,9.07,9.07,0,0,1,3.16,3.47,12.11,12.11,0,0,1,1.18,5.67,14.75,14.75,0,0,1-.53,4,10.46,10.46,0,0,1-1.61,3.34,9.77,9.77,0,0,1-2.75,2.51,11.93,11.93,0,0,1-3.9,1.51,16,16,0,0,1,2,1.81,10.87,10.87,0,0,1,1.35,1.84,14.41,14.41,0,0,1,1,2.16l1,2.71ZM53.77,831.44H68.68a26.94,26.94,0,0,0,5.46-.47,9.45,9.45,0,0,0,3.75-1.55,6.4,6.4,0,0,0,2.17-2.8,11.22,11.22,0,0,0,.71-4.24c0-3-.94-5.07-2.81-6.34s-4.66-1.9-8.37-1.9H53.77Z" transform="translate(-3.49 -417.89)"/><path d="M112.44,810.22a20.71,20.71,0,0,1,8.13,1.57,18.18,18.18,0,0,1,6.41,4.47,20.85,20.85,0,0,1,4.2,7,26,26,0,0,1,1.51,9.11A26.34,26.34,0,0,1,131,842a20.22,20.22,0,0,1-4.75,7.3l6.79,5.34c-.39.49-.72.91-1,1.25L131.2,857l-7.3-5.69a18.36,18.36,0,0,1-5.28,2.57,20.94,20.94,0,0,1-6.18.88,20.21,20.21,0,0,1-8.2-1.63,18.57,18.57,0,0,1-6.41-4.57,20.6,20.6,0,0,1-4.18-7.06,26.55,26.55,0,0,1-1.49-9.14,26.17,26.17,0,0,1,1.51-9.15,20.27,20.27,0,0,1,4.21-7,18.71,18.71,0,0,1,6.42-4.45A20.62,20.62,0,0,1,112.44,810.22Zm0,41.39a18.23,18.23,0,0,0,4.75-.6,16.88,16.88,0,0,0,4.16-1.75l-4.75-3.73c.45-.52.79-.95,1-1.27s.54-.69.88-1.08l5.34,4.24a16.85,16.85,0,0,0,4.1-6.26,24.28,24.28,0,0,0,1.47-8.81,24,24,0,0,0-1.27-8.16,17.1,17.1,0,0,0-3.53-6,14.88,14.88,0,0,0-5.34-3.65,19.21,19.21,0,0,0-13.58,0,15,15,0,0,0-5.39,3.67,16.88,16.88,0,0,0-3.55,5.94,23.92,23.92,0,0,0-1.28,8.13,24.61,24.61,0,0,0,1.26,8.18,17.2,17.2,0,0,0,3.51,6.06,14.74,14.74,0,0,0,5.37,3.75A17.83,17.83,0,0,0,112.4,851.61Z" transform="translate(-3.49 -417.89)"/><path d="M158.7,854.75a23.35,23.35,0,0,1-6.58-.8,13.85,13.85,0,0,1-4.53-2.18,10.65,10.65,0,0,1-2.86-3.22,15.64,15.64,0,0,1-1.61-3.92,21.76,21.76,0,0,1-.69-4.32c-.09-1.49-.14-2.94-.14-4.35V811h3.14v24.84a30.17,30.17,0,0,0,.88,8,11.1,11.1,0,0,0,2.59,4.8,8.86,8.86,0,0,0,4.16,2.36,22.85,22.85,0,0,0,5.64.62,23.36,23.36,0,0,0,5.7-.62,8.41,8.41,0,0,0,4.16-2.38,11.17,11.17,0,0,0,2.54-4.8,30.43,30.43,0,0,0,.86-8V811h3.14v25a37.86,37.86,0,0,1-.75,7.92,14.65,14.65,0,0,1-2.59,5.91,11.56,11.56,0,0,1-5,3.69A21.79,21.79,0,0,1,158.7,854.75Z" transform="translate(-3.49 -417.89)"/><path d="M190.72,854h-3.14V811h3.14Z" transform="translate(-3.49 -417.89)"/><path d="M232.36,814.14h-15V854h-3.14V814.14H199.32V811h33Z" transform="translate(-3.49 -417.89)"/><path d="M271.45,854h-31V811h30v3.14H243.55V830H268.7v3.14H243.55v17.66h27.9Z" transform="translate(-3.49 -417.89)"/><path d="M311.15,822.5a9.91,9.91,0,0,0-1.61-3.59A12,12,0,0,0,306.6,816a14.54,14.54,0,0,0-4.06-1.94,16.69,16.69,0,0,0-4.93-.7,18,18,0,0,0-6.76,1.21,13.69,13.69,0,0,0-5.18,3.59,16.21,16.21,0,0,0-3.3,5.93,26.74,26.74,0,0,0-1.16,8.26,27.14,27.14,0,0,0,1.16,8.3,16.71,16.71,0,0,0,3.3,6,13.83,13.83,0,0,0,5.14,3.69,17.12,17.12,0,0,0,6.69,1.25,15.83,15.83,0,0,0,9.18-2.49,10.72,10.72,0,0,0,4.47-7.28h3.26a15.19,15.19,0,0,1-1.92,5.48,14.22,14.22,0,0,1-3.65,4.06,16,16,0,0,1-5.07,2.51,21.22,21.22,0,0,1-6.2.86,20.2,20.2,0,0,1-8.18-1.59,17.35,17.35,0,0,1-6.18-4.49,20,20,0,0,1-3.92-7,29.24,29.24,0,0,1-1.37-9.28,28.56,28.56,0,0,1,1.37-9.18,19.79,19.79,0,0,1,3.94-7,17.32,17.32,0,0,1,6.2-4.43,20.44,20.44,0,0,1,8.14-1.55,19.23,19.23,0,0,1,5.91.9,17.53,17.53,0,0,1,5,2.53,15.78,15.78,0,0,1,3.77,3.88,14.09,14.09,0,0,1,2.12,5Z" transform="translate(-3.49 -417.89)"/><path d="M352.61,814.14h-15V854h-3.14V814.14H319.57V811h33Z" transform="translate(-3.49 -417.89)"/><path d="M377.08,854.75a23.35,23.35,0,0,1-6.58-.8,14,14,0,0,1-4.53-2.18,10.65,10.65,0,0,1-2.86-3.22,15.64,15.64,0,0,1-1.61-3.92,21.76,21.76,0,0,1-.69-4.32c-.09-1.49-.14-2.94-.14-4.35V811h3.14v24.84a29.71,29.71,0,0,0,.89,8,11,11,0,0,0,2.59,4.8,8.77,8.77,0,0,0,4.16,2.36,22.71,22.71,0,0,0,5.63.62,23.5,23.5,0,0,0,5.71-.62,8.5,8.5,0,0,0,4.16-2.38,11.27,11.27,0,0,0,2.53-4.8,30.43,30.43,0,0,0,.86-8V811h3.14v25a37.86,37.86,0,0,1-.75,7.92,14.51,14.51,0,0,1-2.59,5.91,11.56,11.56,0,0,1-5,3.69A21.79,21.79,0,0,1,377.08,854.75Z" transform="translate(-3.49 -417.89)"/><path d="M439.81,854h-3.46l-4.27-11.42a28.47,28.47,0,0,0-1.4-3.1,11.32,11.32,0,0,0-1.78-2.53,7.84,7.84,0,0,0-2.34-1.71,7,7,0,0,0-3.08-.63h-15V854h-3.14V811h19.35a28.13,28.13,0,0,1,5.24.49,13,13,0,0,1,4.51,1.75,9.07,9.07,0,0,1,3.16,3.47,12.11,12.11,0,0,1,1.18,5.67,14.75,14.75,0,0,1-.53,4,10.46,10.46,0,0,1-1.61,3.34,9.77,9.77,0,0,1-2.75,2.51,11.93,11.93,0,0,1-3.9,1.51,16,16,0,0,1,2,1.81,10.87,10.87,0,0,1,1.35,1.84,14.41,14.41,0,0,1,1,2.16l1,2.71Zm-31.36-22.53h14.91a26.94,26.94,0,0,0,5.46-.47,9.51,9.51,0,0,0,3.75-1.55,6.4,6.4,0,0,0,2.17-2.8,11.22,11.22,0,0,0,.71-4.24c0-3-.94-5.07-2.81-6.34s-4.66-1.9-8.37-1.9H408.45Z" transform="translate(-3.49 -417.89)"/><path d="M485.15,854h-3.77l-5.26-13.81H455q-1.14,3.26-2.47,6.88L450,854h-3.34q2.11-5.57,4.18-10.91t4.1-10.61q2-5.28,4.1-10.62T463.17,811h4.44Zm-9.93-16.29-10-23.89-9.46,23.89Z" transform="translate(-3.49 -417.89)"/><path d="M544.72,856.05h-3V811h3Z" transform="translate(-3.49 -417.89)"/><path d="M648.47,832.15q0,21.83-21.7,21.82h-13V811h13q10.88,0,16.29,5.24T648.47,832.15Zm-3.34,0a31.08,31.08,0,0,0-.84-7.57,13,13,0,0,0-3-5.67,13.21,13.21,0,0,0-5.67-3.55,28.11,28.11,0,0,0-9-1.22h-9.77v36.69h9.77a27,27,0,0,0,8.93-1.26,13.12,13.12,0,0,0,5.67-3.67,13.7,13.7,0,0,0,3-5.86A32.42,32.42,0,0,0,645.13,832.15Z" transform="translate(-3.49 -417.89)"/><path d="M662.39,854h-3.14V811h3.14Z" transform="translate(-3.49 -417.89)"/><path d="M690.37,854.75a27.88,27.88,0,0,1-7.61-.92,15.92,15.92,0,0,1-5.47-2.63,11.6,11.6,0,0,1-3.4-4.12,14.48,14.48,0,0,1-1.37-5.43h3.1a11.82,11.82,0,0,0,1.77,4.82,9.93,9.93,0,0,0,3.19,3.07,13.45,13.45,0,0,0,4.34,1.6,26.75,26.75,0,0,0,5.18.47,20.42,20.42,0,0,0,5.16-.6,12.09,12.09,0,0,0,3.92-1.77,7.86,7.86,0,0,0,2.49-2.79,7.61,7.61,0,0,0,.87-3.66,7.93,7.93,0,0,0-.75-3.63,6.47,6.47,0,0,0-2.51-2.57,19.42,19.42,0,0,0-4.65-2q-2.88-.86-7.16-1.76a38.51,38.51,0,0,1-6.06-1.81,16,16,0,0,1-4.18-2.37,8.49,8.49,0,0,1-2.43-3.1,9.71,9.71,0,0,1-.79-4.06,9.88,9.88,0,0,1,1.06-4.59,10.46,10.46,0,0,1,3-3.57,14.39,14.39,0,0,1,4.67-2.32,20.77,20.77,0,0,1,6-.82,22.52,22.52,0,0,1,6,.76,15.37,15.37,0,0,1,4.8,2.22,11.81,11.81,0,0,1,3.34,3.53,12.05,12.05,0,0,1,1.63,4.71h-3a10.42,10.42,0,0,0-1.42-3.22,9.36,9.36,0,0,0-2.53-2.57,12.36,12.36,0,0,0-3.68-1.69,18.18,18.18,0,0,0-4.89-.6q-5.77,0-8.73,2.11a6.76,6.76,0,0,0-3,5.81,7.18,7.18,0,0,0,.55,2.94,5.69,5.69,0,0,0,1.86,2.26,12.73,12.73,0,0,0,3.47,1.77,42.67,42.67,0,0,0,5.38,1.43l3.88.82c1.34.29,2.64.63,3.91,1A24.13,24.13,0,0,1,700,833a11.5,11.5,0,0,1,3,2.12,9.37,9.37,0,0,1,2,3,10.24,10.24,0,0,1,.76,4.14,11,11,0,0,1-1.15,5,12.15,12.15,0,0,1-3.22,4,15,15,0,0,1-4.91,2.59A19.73,19.73,0,0,1,690.37,854.75Z" transform="translate(-3.49 -417.89)"/><path d="M746.76,854h-31V811h30v3.14H718.86V830H744v3.14H718.86v17.66h27.9Z" transform="translate(-3.49 -417.89)"/><path d="M789,854h-4.12l-26.22-39.24V854h-3.13V811h4.31l26,39.16V811H789Zm-8.44-54.27a6.64,6.64,0,0,1-1.29,4.37,4.41,4.41,0,0,1-3.57,1.56,5.82,5.82,0,0,1-1.63-.34c-.7-.22-1.4-.47-2.12-.74l-2-.75a4.51,4.51,0,0,0-1.16-.33,1.84,1.84,0,0,0-1.53.55,3.25,3.25,0,0,0-.55,1.68h-2.79a5.53,5.53,0,0,1,1.32-4.08,4.84,4.84,0,0,1,3.55-1.29,5.44,5.44,0,0,1,1.57.35c.68.24,1.38.49,2.1.77l2,.76a4.09,4.09,0,0,0,1.22.35,1.81,1.81,0,0,0,1.45-.8,3.3,3.3,0,0,0,.62-2.06Z" transform="translate(-3.49 -417.89)"/><path d="M819,810.22a20.62,20.62,0,0,1,8.12,1.57,18.13,18.13,0,0,1,6.42,4.47,20.85,20.85,0,0,1,4.2,7,26.26,26.26,0,0,1,1.51,9.11,26.68,26.68,0,0,1-1.49,9.1,21.11,21.11,0,0,1-4.18,7.08,18.55,18.55,0,0,1-6.4,4.59,21.39,21.39,0,0,1-16.38,0,18.51,18.51,0,0,1-6.42-4.57,20.92,20.92,0,0,1-4.18-7.06,26.79,26.79,0,0,1-1.49-9.14,26.41,26.41,0,0,1,1.51-9.15,20.45,20.45,0,0,1,4.22-7,18.71,18.71,0,0,1,6.42-4.45A20.58,20.58,0,0,1,819,810.22Zm0,41.39a17.83,17.83,0,0,0,6.81-1.27,14.82,14.82,0,0,0,5.39-3.75,17.26,17.26,0,0,0,3.54-6.06,24.88,24.88,0,0,0,1.25-8.18,24,24,0,0,0-1.27-8.16,17,17,0,0,0-3.54-6,14.76,14.76,0,0,0-5.33-3.65,19.21,19.21,0,0,0-13.58,0,15,15,0,0,0-5.39,3.67,16.9,16.9,0,0,0-3.56,5.94,23.93,23.93,0,0,0-1.27,8.13,24.88,24.88,0,0,0,1.25,8.18,17.37,17.37,0,0,0,3.52,6.06,14.66,14.66,0,0,0,5.37,3.75A17.83,17.83,0,0,0,818.91,851.61Z" transform="translate(-3.49 -417.89)"/><path d="M901.13,856.05h-3V811h3Z" transform="translate(-3.49 -417.89)"/><path d="M974.7,854h-3.14V811h3.14Z" transform="translate(-3.49 -417.89)"/><path d="M1020.52,854h-4.12l-26.21-39.24V854h-3.14V811h4.32l26,39.16V811h3.14Z" transform="translate(-3.49 -417.89)"/><path d="M1061.44,814.14h-15V854h-3.14V814.14H1028.4V811h33Z" transform="translate(-3.49 -417.89)"/><path d="M1100.53,854h-31V811h30v3.14h-26.84V830h25.15v3.14h-25.15v17.66h27.9Z" transform="translate(-3.49 -417.89)"/><path d="M1143.88,854h-3.45l-4.28-11.42a28.45,28.45,0,0,0-1.39-3.1,11.35,11.35,0,0,0-1.79-2.53,7.84,7.84,0,0,0-2.34-1.71,7,7,0,0,0-3.08-.63h-15V854h-3.14V811h19.34a28.05,28.05,0,0,1,5.24.49,12.91,12.91,0,0,1,4.51,1.75,9,9,0,0,1,3.16,3.47,12,12,0,0,1,1.18,5.67,14.75,14.75,0,0,1-.53,4,10.25,10.25,0,0,1-1.61,3.34,9.77,9.77,0,0,1-2.75,2.51,11.93,11.93,0,0,1-3.9,1.51,15.35,15.35,0,0,1,2,1.81,10.87,10.87,0,0,1,1.35,1.84,14.41,14.41,0,0,1,1,2.16l1,2.71Zm-31.35-22.53h14.91a26.84,26.84,0,0,0,5.45-.47,9.45,9.45,0,0,0,3.75-1.55,6.5,6.5,0,0,0,2.18-2.8,11.23,11.23,0,0,0,.7-4.24c0-3-.93-5.07-2.8-6.34s-4.67-1.9-8.38-1.9h-15.81Z" transform="translate(-3.49 -417.89)"/><path d="M1157.5,854h-3.14V811h3.14Z" transform="translate(-3.49 -417.89)"/><path d="M1188.31,810.22a20.66,20.66,0,0,1,8.12,1.57,18.31,18.31,0,0,1,6.42,4.47,20.67,20.67,0,0,1,4.19,7,26,26,0,0,1,1.51,9.11,26.44,26.44,0,0,1-1.49,9.1,20.79,20.79,0,0,1-4.18,7.08,18.51,18.51,0,0,1-6.39,4.59,21.39,21.39,0,0,1-16.38,0,18.51,18.51,0,0,1-6.42-4.57,20.76,20.76,0,0,1-4.18-7.06,26.79,26.79,0,0,1-1.49-9.14,26.17,26.17,0,0,1,1.51-9.15,20.29,20.29,0,0,1,4.22-7,18.58,18.58,0,0,1,6.41-4.45A20.67,20.67,0,0,1,1188.31,810.22Zm0,41.39a17.83,17.83,0,0,0,6.81-1.27,14.9,14.9,0,0,0,5.39-3.75,17.09,17.09,0,0,0,3.53-6.06,24.61,24.61,0,0,0,1.26-8.18,23.94,23.94,0,0,0-1.28-8.16,17,17,0,0,0-3.53-6,14.71,14.71,0,0,0-5.34-3.65,17.93,17.93,0,0,0-6.72-1.23,18.11,18.11,0,0,0-6.85,1.25,15.11,15.11,0,0,0-5.4,3.67,17,17,0,0,0-3.55,5.94,23.93,23.93,0,0,0-1.27,8.13,24.62,24.62,0,0,0,1.25,8.18,17.51,17.51,0,0,0,3.51,6.06,14.78,14.78,0,0,0,5.38,3.75A17.83,17.83,0,0,0,1188.27,851.61Z" transform="translate(-3.49 -417.89)"/><path d="M1252.85,854h-3.45l-4.28-11.42a28.45,28.45,0,0,0-1.39-3.1,11.35,11.35,0,0,0-1.79-2.53,7.93,7.93,0,0,0-2.33-1.71,7.06,7.06,0,0,0-3.08-.63h-15V854h-3.14V811h19.35a28,28,0,0,1,5.23.49,13,13,0,0,1,4.52,1.75,9,9,0,0,1,3.15,3.47,12,12,0,0,1,1.18,5.67,14.37,14.37,0,0,1-.53,4,10.25,10.25,0,0,1-1.61,3.34,9.73,9.73,0,0,1-2.74,2.51,12.08,12.08,0,0,1-3.91,1.51,15.35,15.35,0,0,1,2,1.81,10.41,10.41,0,0,1,1.36,1.84,14.41,14.41,0,0,1,1,2.16c.3.78.64,1.69,1,2.71Zm-31.35-22.53h14.91a26.77,26.77,0,0,0,5.45-.47,9.45,9.45,0,0,0,3.75-1.55,6.42,6.42,0,0,0,2.18-2.8,11.22,11.22,0,0,0,.71-4.24c0-3-.94-5.07-2.81-6.34s-4.66-1.9-8.38-1.9H1221.5Z" transform="translate(-3.49 -417.89)"/><path d="M1266.47,854h-3.14V811h3.14Z" transform="translate(-3.49 -417.89)"/><path d="M1294.45,854.75a27.88,27.88,0,0,1-7.61-.92,15.83,15.83,0,0,1-5.47-2.63,11.6,11.6,0,0,1-3.4-4.12,14.48,14.48,0,0,1-1.37-5.43h3.1a12,12,0,0,0,1.76,4.82,10.06,10.06,0,0,0,3.2,3.07,13.45,13.45,0,0,0,4.34,1.6,26.75,26.75,0,0,0,5.18.47,20.42,20.42,0,0,0,5.16-.6,12.09,12.09,0,0,0,3.92-1.77,7.86,7.86,0,0,0,2.49-2.79,7.61,7.61,0,0,0,.87-3.66,7.93,7.93,0,0,0-.75-3.63,6.54,6.54,0,0,0-2.51-2.57,19.42,19.42,0,0,0-4.65-2q-2.88-.86-7.16-1.76a38.19,38.19,0,0,1-6.06-1.81,16,16,0,0,1-4.18-2.37,8.63,8.63,0,0,1-2.44-3.1,10.69,10.69,0,0,1,.28-8.65,10.46,10.46,0,0,1,3-3.57,14.39,14.39,0,0,1,4.67-2.32,20.77,20.77,0,0,1,6-.82,22.52,22.52,0,0,1,6.05.76,15.37,15.37,0,0,1,4.8,2.22,11.81,11.81,0,0,1,3.34,3.53,12.05,12.05,0,0,1,1.63,4.71h-3a10.42,10.42,0,0,0-1.42-3.22,9.36,9.36,0,0,0-2.53-2.57A12.31,12.31,0,0,0,1298,814a18.06,18.06,0,0,0-4.88-.6q-5.77,0-8.73,2.11a6.77,6.77,0,0,0-3,5.81,7.34,7.34,0,0,0,.55,2.94,5.8,5.8,0,0,0,1.87,2.26,12.58,12.58,0,0,0,3.47,1.77,42.67,42.67,0,0,0,5.38,1.43l3.88.82c1.34.29,2.64.63,3.91,1a25,25,0,0,1,3.63,1.46,11.5,11.5,0,0,1,3,2.12,9.37,9.37,0,0,1,2,3,10.24,10.24,0,0,1,.76,4.14,11,11,0,0,1-1.15,5,12.15,12.15,0,0,1-3.22,4,15,15,0,0,1-4.91,2.59A19.73,19.73,0,0,1,1294.45,854.75Z" transform="translate(-3.49 -417.89)"/><path d="M1360.05,854h-3.13V816.14L1341.46,854h-3.3l-15.42-37.83V854h-3.14V811h4.55l15.66,39,15.77-39h4.47Z" transform="translate(-3.49 -417.89)"/><path d="M1390.05,810.22a20.62,20.62,0,0,1,8.12,1.57,18.22,18.22,0,0,1,6.42,4.47,20.85,20.85,0,0,1,4.2,7,26.26,26.26,0,0,1,1.51,9.11,26.68,26.68,0,0,1-1.49,9.1,21.11,21.11,0,0,1-4.18,7.08,18.64,18.64,0,0,1-6.4,4.59,21.39,21.39,0,0,1-16.38,0,18.51,18.51,0,0,1-6.42-4.57,20.92,20.92,0,0,1-4.18-7.06,26.79,26.79,0,0,1-1.49-9.14,26.17,26.17,0,0,1,1.51-9.15,20.45,20.45,0,0,1,4.22-7,18.61,18.61,0,0,1,6.42-4.45A20.58,20.58,0,0,1,1390.05,810.22Zm0,41.39a17.83,17.83,0,0,0,6.81-1.27,14.82,14.82,0,0,0,5.39-3.75,17.09,17.09,0,0,0,3.53-6.06,24.61,24.61,0,0,0,1.26-8.18,24.19,24.19,0,0,0-1.27-8.16,17.12,17.12,0,0,0-3.54-6,14.76,14.76,0,0,0-5.33-3.65,19.21,19.21,0,0,0-13.58,0,15.11,15.11,0,0,0-5.4,3.67,17,17,0,0,0-3.55,5.94,23.93,23.93,0,0,0-1.27,8.13,24.88,24.88,0,0,0,1.25,8.18,17.37,17.37,0,0,0,3.52,6.06,14.66,14.66,0,0,0,5.37,3.75A17.83,17.83,0,0,0,1390,851.61Z" transform="translate(-3.49 -417.89)"/></svg>